<svg data-name="Layer 1" xmlns="http://www.w3.org/2000/svg" viewBox="0 0 360 55" preserveAspectRatio="xMidYMin meet"><path d="M273.25 39.63h-1.44l7.42-20.1h9.71l-.49 1.3h-8.28l-3.17 8.5h7.87l-.49 1.3h-7.78zm31.88-12.55a19.91 19.91 0 01-2.33 6.57 13.36 13.36 0 01-4.19 4.67 9.31 9.31 0 01-5.26 1.53c-2.29 0-4-.67-5-2s-1.3-3.33-.94-5.94a19.36 19.36 0 012.29-6.52 12.57 12.57 0 014.3-4.56 10.08 10.08 0 015.4-1.57c2.25 0 3.91.67 4.9 2s1.26 3.33.85 5.8zM299 20.56a7.77 7.77 0 00-4.43 1.44 11.28 11.28 0 00-3.57 4.09 16.69 16.69 0 00-2 5.71c-.32 2.25-.09 4 .72 5.13s2.2 1.75 4.14 1.75a7.39 7.39 0 004.31-1.39 11.21 11.21 0 003.51-4.14 17.73 17.73 0 002-5.93 7.13 7.13 0 00-.67-5 4.65 4.65 0 00-4-1.66zm11 10.34l-3.19 8.68h-1.44l7.42-20.1H317c4 0 5.67 1.66 5.13 4.95a7.37 7.37 0 01-2.13 4.18 7.56 7.56 0 01-4.18 2.07c1 5.44 1.53 8.36 1.66 8.9H316l-1.53-8.68zm.5-1.21h3.5a7.29 7.29 0 004.54-1.3 5.66 5.66 0 002.07-3.83c.41-2.47-.94-3.69-4-3.69h-2.92zm20.28 7.15l12.77-17.22h2.07l-7.28 20.1h-1.4l4.54-12.37c1.26-3.42 2-5.44 2.34-6.16h-.09l-13.55 18.48h-.76l-.09-18.48h-.09c-.4 1.44-1.08 3.33-2 5.89l-4.72 12.68h-1.35l7.42-20.1h2v17.18zm25.05-2.79a6.15 6.15 0 01-1.39 3.06 7 7 0 01-2.79 2 9.76 9.76 0 01-3.78.72 9.42 9.42 0 01-2.29-.22 15.79 15.79 0 01-2.25-.77l.22-1.48a9 9 0 004.54 1.26 7 7 0 004.23-1.21 4.75 4.75 0 002-3.2 3.86 3.86 0 000-1.44 2.51 2.51 0 00-.54-1.08 12.55 12.55 0 00-1.08-.94 15.35 15.35 0 00-1.66-1 6.21 6.21 0 01-2.52-2.24 4.58 4.58 0 01-.41-2.84 5.84 5.84 0 011.26-2.83 7.38 7.38 0 012.57-1.93 7.53 7.53 0 013.33-.68 9.85 9.85 0 012.42.23 12.18 12.18 0 012.21.81l-.68 1.3a6.13 6.13 0 00-1.93-.9 7.84 7.84 0 00-2.2-.31 6 6 0 00-3.74 1.16 4.73 4.73 0 00-1.8 3 3.31 3.31 0 00.32 2.34 5.28 5.28 0 002.2 1.8 11.13 11.13 0 012.66 1.79 4.65 4.65 0 011 1.53 5.32 5.32 0 01.13 2.07z" fill="#d85427"/><path d="M96.86 28.79v8h5.3a8.16 8.16 0 01-5.39 1.75A8 8 0 0190.7 36a9 9 0 01-2.34-6.39 9 9 0 012.43-6.56A7.92 7.92 0 0197 20.51c3.92 0 6.66 1.71 7.92 5.31h12.55a22.15 22.15 0 00-5.67-11.11 19.54 19.54 0 00-14.49-5.89 20.66 20.66 0 00-19.39 12.64 18.61 18.61 0 011 3.14 2.21 2.21 0 00.35.08L86 26.05v7.19l-7 1.49a19 19 0 01-1 3.06 20.48 20.48 0 0019 12.32c5.75 0 10.48-1.67 14-5.17 5.22-5.22 6.26-11.88 6.57-14.89a3.71 3.71 0 000-1.26zm-68.45 4.14a8.24 8.24 0 01-2 3.33 8 8 0 01-5.94 2.2 8 8 0 01-6.07-2.52 9 9 0 01-2.34-6.39A9 9 0 0114.51 23a7.93 7.93 0 016.21-2.56 7.9 7.9 0 018.14 5.75l9.22-1.57a17.6 17.6 0 011.44-4 19.91 19.91 0 00-4-5.89 19.22 19.22 0 00-14.48-6 20.24 20.24 0 00-14.89 6A20.08 20.08 0 00.07 29.55a20.21 20.21 0 0020.65 20.56c5.75 0 10.43-1.76 14-5.17a20 20 0 004.55-6.71 17.6 17.6 0 01-1.27-3.5z" fill="#00b3ab"/><path d="M170.48 13.23a9.05 9.05 0 0011.83 0 7.23 7.23 0 002.47-5.31 6.82 6.82 0 00-2.47-5.3 9 9 0 00-11.83 0 7 7 0 00-2.48 5.3 7.31 7.31 0 002.48 5.31z" fill="#d85427"/><path d="M235.38 19.53c-6.48 0-11.69 1.39-15.52 4A15.44 15.44 0 00213.21 34a21.53 21.53 0 00-.23 2.34 11.71 11.71 0 001.58 6.07H200.3l5.49-15.92h2.92c5.58 0 9.26-2.34 11.11-7.06h-11.43l6.26-17.68H206c-3.24 6.07-6.25 10.3-9 12.64-2.52 2.07-6.3 3.73-11.47 5.13l-2.74 7H190l-5.57 15.92h-10.49l8.19-22.93h-16S158.16 42 158 42.46h-4.54l5.71-15.92a10.92 10.92 0 00.72-3.64c0-2.92-1.44-4.45-4.32-4.54a17.72 17.72 0 00-11.87 4.27l-13.56 11.06 5-14.12h-16.9a23.63 23.63 0 012 10A22.41 22.41 0 01114 45.7a21 21 0 01-4.9 3.82h7.9c2.29 0 5.21-1.21 8.77-3.68l15.15-12.91-3.33 9.49a8.94 8.94 0 00-.67 3.06c0 2.65 2.25 4.13 6.66 4.13H240a21.51 21.51 0 008.55-3.5A15.07 15.07 0 00255 34.5a10.44 10.44 0 00-.76-4.5 7.53 7.53 0 00-2.34-3.55h12c5.89 0 9.45-2.16 10.62-6.92zm.81 23.83a13 13 0 01-1.44 0c-4.72 0-7.06-1.26-7.06-3.83a6.28 6.28 0 01.27-1.7l4-11.29h10.12zM83.41 32.61v-6.25l-7-1.26a19.9 19.9 0 00-2.17-5.1l4-5.89-4.4-4.4-5.84 4.1a31.84 31.84 0 00-5-2.07l-1.36-7.19h-6.25l-1.3 7.19a18.61 18.61 0 00-5 2l-5.9-4-4.4 4.14 4 6.29a16.07 16.07 0 00-2.07 5l-7.2 1.26v6.3l7.16 1.3a18.87 18.87 0 002.1 5l-4 5.83 4.32 4.52 5.94-4a18.6 18.6 0 005 2.15l1.26 6.93h6.3l1.26-7.15A20.29 20.29 0 0068 45.25l5.9 4 4.4-4.41-4-5.89a20.33 20.33 0 002.16-5.13zm-24.92 6.93a9.81 9.81 0 119.81-9.81 9.8 9.8 0 01-9.81 9.81z" fill="#d85427"/></svg>